<?xml version="1.0" encoding="utf-8"?>
<!-- Generator: Adobe Illustrator 21.1.0, SVG Export Plug-In . SVG Version: 6.00 Build 0)  -->
<svg version="1.1" id="Layer_1" xmlns="http://www.w3.org/2000/svg" xmlns:xlink="http://www.w3.org/1999/xlink" x="0px" y="0px"
	 viewBox="0 0 100 125" style="enable-background:new 0 0 100 125;" xml:space="preserve">
<path d="M82,23.4H65v-3.7c0-2.6-2.4-4.6-5.4-4.6H40.4c-3,0-5.4,2-5.4,4.6v3.7H18c-1.7,0-3,1.3-3,3s1.3,3,3,3h3.7L25.4,76
	c0.1,5.5,4.5,9.9,10,9.9h29.1c5.5,0,9.9-4.4,10-9.9l3.8-46.5H82c1.7,0,3-1.3,3-3S83.7,23.4,82,23.4z M41,21.1h18v2.3H41V21.1z
	 M42.2,69.8L42.2,69.8c-1.7,0-3-1.3-3.1-2.9L38,42.5c-0.1-1.7,1.2-3.1,2.9-3.1H41c1.6,0,2.9,1.3,3,2.9l1.1,24.4
	C45.1,68.3,43.9,69.7,42.2,69.8z M60.9,66.9c-0.1,1.6-1.4,2.9-3,2.9h-0.1c-1.7-0.1-2.9-1.5-2.9-3.1L56,42.3c0.1-1.6,1.4-2.9,3-2.9
	h0.1c1.7,0.1,2.9,1.5,2.9,3.1L60.9,66.9z"/>
</svg>
